# xmcd
#
# Track frame offsets:
#	150
#	12869
#	25564
#	42611
#	55083
#	68457
#	78544
#	94762
#
# Disc length: 1380 seconds
#
# Revision: 1
# Processed by: cddbd v1.5.1PL0 Copyright (c) Steve Scherf et al.
# Submitted via: CDex 1.50Beta5
#
DISCID=57056208
DTITLE=ストレイテナー - Skeletonized
DYEAR=2002
DGENRE=Rock
TTITLE0=Rocksteady
TTITLE1=Unicorn
TTITLE2=走る岩
TTITLE3=Drastic Transposition
TTITLE4=Senseless Story Teller Stony
TTITLE5=Under Attack
TTITLE6=Fragile Silencer
TTITLE7=Stand Up Now
EXTD=
EXTT0=
EXTT1=
EXTT2=
EXTT3=
EXTT4=
EXTT5=
EXTT6=
EXTT7=
PLAYORDER=
